<svg xmlns="http://www.w3.org/2000/svg" width="860" height="280"
  viewBox="0 0 860 280" style="background:#fff;border-radius:12px;font-family:system-ui,sans-serif">
  <defs>
    <linearGradient id="grad0" x1="0" y1="0" x2="0" y2="1">
      <stop offset="0%"   stop-color="#818cf8" stop-opacity="0.35"/>
      <stop offset="100%" stop-color="#818cf8" stop-opacity="0.02"/>
    </linearGradient>
    <linearGradient id="grad1" x1="0" y1="0" x2="0" y2="1">
      <stop offset="0%"   stop-color="#34d399" stop-opacity="0.35"/>
      <stop offset="100%" stop-color="#34d399" stop-opacity="0.02"/>
    </linearGradient>
    <linearGradient id="grad2" x1="0" y1="0" x2="0" y2="1">
      <stop offset="0%"   stop-color="#fbbf24" stop-opacity="0.35"/>
      <stop offset="100%" stop-color="#fbbf24" stop-opacity="0.02"/>
    </linearGradient>
  </defs>

  <!-- Y grid + labels -->
  
    <line x1="64" y1="224.0" x2="836" y2="224.0"
      stroke="#e5e7eb" stroke-width="1"/>
    <text x="56" y="224.0" text-anchor="end" dominant-baseline="middle"
      font-size="11" fill="#6b7280">0</text>
    <line x1="64" y1="180.0" x2="836" y2="180.0"
      stroke="#e5e7eb" stroke-width="1"/>
    <text x="56" y="180.0" text-anchor="end" dominant-baseline="middle"
      font-size="11" fill="#6b7280">159</text>
    <line x1="64" y1="136.0" x2="836" y2="136.0"
      stroke="#e5e7eb" stroke-width="1"/>
    <text x="56" y="136.0" text-anchor="end" dominant-baseline="middle"
      font-size="11" fill="#6b7280">318</text>
    <line x1="64" y1="92.0" x2="836" y2="92.0"
      stroke="#e5e7eb" stroke-width="1"/>
    <text x="56" y="92.0" text-anchor="end" dominant-baseline="middle"
      font-size="11" fill="#6b7280">477</text>
    <line x1="64" y1="48.0" x2="836" y2="48.0"
      stroke="#e5e7eb" stroke-width="1"/>
    <text x="56" y="48.0" text-anchor="end" dominant-baseline="middle"
      font-size="11" fill="#6b7280">636</text>

  <!-- Areas -->
  
    <polygon points="64.0,210.2 90.6,223.4 117.2,221.5 143.9,218.5 170.5,219.3 197.1,67.1 223.7,213.8 250.3,48.0 277.0,215.4 303.6,210.4 330.2,215.4 356.8,185.0 383.4,217.1 410.1,219.0 436.7,223.4 463.3,223.7 489.9,212.4 516.6,167.0 543.2,184.4 569.8,208.5 596.4,222.1 623.0,213.8 649.7,223.7 676.3,217.1 702.9,224.0 729.5,223.7 756.1,223.7 782.8,223.4 809.4,224.0 836.0,224.0 836.0,224.0 64.0,224.0" fill="url(#grad0)"/>
    <polygon points="64.0,224.0 90.6,224.0 117.2,224.0 143.9,224.0 170.5,224.0 197.1,224.0 223.7,224.0 250.3,224.0 277.0,224.0 303.6,224.0 330.2,224.0 356.8,224.0 383.4,224.0 410.1,224.0 436.7,224.0 463.3,224.0 489.9,224.0 516.6,224.0 543.2,191.3 569.8,221.2 596.4,222.1 623.0,223.7 649.7,224.0 676.3,223.7 702.9,224.0 729.5,223.7 756.1,223.4 782.8,223.2 809.4,224.0 836.0,223.7 836.0,224.0 64.0,224.0" fill="url(#grad1)"/>
    <polygon points="64.0,224.0 90.6,224.0 117.2,224.0 143.9,224.0 170.5,224.0 197.1,224.0 223.7,224.0 250.3,224.0 277.0,224.0 303.6,224.0 330.2,224.0 356.8,224.0 383.4,224.0 410.1,224.0 436.7,224.0 463.3,224.0 489.9,224.0 516.6,224.0 543.2,192.7 569.8,221.2 596.4,221.2 623.0,223.7 649.7,224.0 676.3,223.7 702.9,224.0 729.5,223.7 756.1,223.4 782.8,223.2 809.4,223.2 836.0,223.7 836.0,224.0 64.0,224.0" fill="url(#grad2)"/>

  <!-- Lines -->
  
    <polyline points="64.0,210.2 90.6,223.4 117.2,221.5 143.9,218.5 170.5,219.3 197.1,67.1 223.7,213.8 250.3,48.0 277.0,215.4 303.6,210.4 330.2,215.4 356.8,185.0 383.4,217.1 410.1,219.0 436.7,223.4 463.3,223.7 489.9,212.4 516.6,167.0 543.2,184.4 569.8,208.5 596.4,222.1 623.0,213.8 649.7,223.7 676.3,217.1 702.9,224.0 729.5,223.7 756.1,223.7 782.8,223.4 809.4,224.0 836.0,224.0"
      fill="none" stroke="#6366f1" stroke-width="2.2"
      stroke-linejoin="round" stroke-linecap="round"/>
    <polyline points="64.0,224.0 90.6,224.0 117.2,224.0 143.9,224.0 170.5,224.0 197.1,224.0 223.7,224.0 250.3,224.0 277.0,224.0 303.6,224.0 330.2,224.0 356.8,224.0 383.4,224.0 410.1,224.0 436.7,224.0 463.3,224.0 489.9,224.0 516.6,224.0 543.2,191.3 569.8,221.2 596.4,222.1 623.0,223.7 649.7,224.0 676.3,223.7 702.9,224.0 729.5,223.7 756.1,223.4 782.8,223.2 809.4,224.0 836.0,223.7"
      fill="none" stroke="#10b981" stroke-width="2.2"
      stroke-linejoin="round" stroke-linecap="round"/>
    <polyline points="64.0,224.0 90.6,224.0 117.2,224.0 143.9,224.0 170.5,224.0 197.1,224.0 223.7,224.0 250.3,224.0 277.0,224.0 303.6,224.0 330.2,224.0 356.8,224.0 383.4,224.0 410.1,224.0 436.7,224.0 463.3,224.0 489.9,224.0 516.6,224.0 543.2,192.7 569.8,221.2 596.4,221.2 623.0,223.7 649.7,224.0 676.3,223.7 702.9,224.0 729.5,223.7 756.1,223.4 782.8,223.2 809.4,223.2 836.0,223.7"
      fill="none" stroke="#f59e0b" stroke-width="2.2"
      stroke-linejoin="round" stroke-linecap="round"/>

  <!-- X axis labels -->
  
    <text x="64.0" y="242"
      text-anchor="middle" font-size="11" fill="#6b7280">May 2</text>
    <text x="197.1" y="242"
      text-anchor="middle" font-size="11" fill="#6b7280">May 7</text>
    <text x="330.2" y="242"
      text-anchor="middle" font-size="11" fill="#6b7280">May 12</text>
    <text x="463.3" y="242"
      text-anchor="middle" font-size="11" fill="#6b7280">May 17</text>
    <text x="596.4" y="242"
      text-anchor="middle" font-size="11" fill="#6b7280">May 22</text>
    <text x="729.5" y="242"
      text-anchor="middle" font-size="11" fill="#6b7280">May 27</text>
    <text x="836.0" y="242"
      text-anchor="middle" font-size="11" fill="#6b7280">May 31</text>

  <!-- End-point dots -->
  
    <circle cx="836.0" cy="224.0" r="4"
      fill="#6366f1" stroke="#fff" stroke-width="2">
      <title>0 downloads</title>
    </circle>
    <circle cx="836.0" cy="223.7" r="4"
      fill="#10b981" stroke="#fff" stroke-width="2">
      <title>1 downloads</title>
    </circle>
    <circle cx="836.0" cy="223.7" r="4"
      fill="#f59e0b" stroke="#fff" stroke-width="2">
      <title>1 downloads</title>
    </circle>

  <!-- Legend (top-left) -->
  
    <rect x="64" y="12" width="12" height="12" rx="3" fill="#6366f1"/>
    <text x="82" y="22" font-size="13" fill="#374151" font-weight="600">
      @doquflow/cli
    </text>
    <text x="82" y="36" font-size="11" fill="#6b7280">
      2,157 last 30 days
    </text>
    <rect x="284" y="12" width="12" height="12" rx="3" fill="#10b981"/>
    <text x="302" y="22" font-size="13" fill="#374151" font-weight="600">
      @doquflow/core
    </text>
    <text x="302" y="36" font-size="11" fill="#6b7280">
      144 last 30 days
    </text>
    <rect x="504" y="12" width="12" height="12" rx="3" fill="#f59e0b"/>
    <text x="522" y="22" font-size="13" fill="#374151" font-weight="600">
      @doquflow/studio
    </text>
    <text x="522" y="36" font-size="11" fill="#6b7280">
      145 last 30 days
    </text>

  <!-- Updated timestamp (bottom-right) -->
  <text x="836" y="272" text-anchor="end"
    font-size="10" fill="#9ca3af">Updated 2026-06-01</text>

  <!-- Axes -->
  <line x1="64" y1="48" x2="64" y2="224"
    stroke="#d1d5db" stroke-width="1"/>
  <line x1="64" y1="224" x2="836" y2="224"
    stroke="#d1d5db" stroke-width="1"/>
</svg>