<svg xmlns="http://www.w3.org/2000/svg" width="860" height="280"
  viewBox="0 0 860 280" style="background:#fff;border-radius:12px;font-family:system-ui,sans-serif">
  <defs>
    <linearGradient id="grad0" x1="0" y1="0" x2="0" y2="1">
      <stop offset="0%"   stop-color="#818cf8" stop-opacity="0.35"/>
      <stop offset="100%" stop-color="#818cf8" stop-opacity="0.02"/>
    </linearGradient>
    <linearGradient id="grad1" x1="0" y1="0" x2="0" y2="1">
      <stop offset="0%"   stop-color="#34d399" stop-opacity="0.35"/>
      <stop offset="100%" stop-color="#34d399" stop-opacity="0.02"/>
    </linearGradient>
    <linearGradient id="grad2" x1="0" y1="0" x2="0" y2="1">
      <stop offset="0%"   stop-color="#fbbf24" stop-opacity="0.35"/>
      <stop offset="100%" stop-color="#fbbf24" stop-opacity="0.02"/>
    </linearGradient>
  </defs>

  <!-- Y grid + labels -->
  
    <line x1="64" y1="224.0" x2="836" y2="224.0"
      stroke="#e5e7eb" stroke-width="1"/>
    <text x="56" y="224.0" text-anchor="end" dominant-baseline="middle"
      font-size="11" fill="#6b7280">0</text>
    <line x1="64" y1="179.8" x2="836" y2="179.8"
      stroke="#e5e7eb" stroke-width="1"/>
    <text x="56" y="179.8" text-anchor="end" dominant-baseline="middle"
      font-size="11" fill="#6b7280">139</text>
    <line x1="64" y1="136.0" x2="836" y2="136.0"
      stroke="#e5e7eb" stroke-width="1"/>
    <text x="56" y="136.0" text-anchor="end" dominant-baseline="middle"
      font-size="11" fill="#6b7280">277</text>
    <line x1="64" y1="91.8" x2="836" y2="91.8"
      stroke="#e5e7eb" stroke-width="1"/>
    <text x="56" y="91.8" text-anchor="end" dominant-baseline="middle"
      font-size="11" fill="#6b7280">416</text>
    <line x1="64" y1="48.0" x2="836" y2="48.0"
      stroke="#e5e7eb" stroke-width="1"/>
    <text x="56" y="48.0" text-anchor="end" dominant-baseline="middle"
      font-size="11" fill="#6b7280">554</text>

  <!-- Areas -->
  
    <polygon points="64.0,223.4 90.6,223.7 117.2,210.7 143.9,158.6 170.5,178.6 197.1,206.2 223.7,221.8 250.3,212.2 277.0,223.7 303.6,216.1 330.2,224.0 356.8,223.7 383.4,223.7 410.1,223.4 436.7,224.0 463.3,224.0 489.9,223.0 516.6,217.0 543.2,224.0 569.8,218.3 596.4,220.5 623.0,224.0 649.7,221.1 676.3,222.7 702.9,212.9 729.5,103.9 756.1,66.1 782.8,213.8 809.4,220.5 836.0,220.5 836.0,224.0 64.0,224.0" fill="url(#grad0)"/>
    <polygon points="64.0,224.0 90.6,224.0 117.2,224.0 143.9,224.0 170.5,186.5 197.1,220.8 223.7,221.8 250.3,223.7 277.0,224.0 303.6,223.7 330.2,224.0 356.8,223.7 383.4,223.4 410.1,223.0 436.7,224.0 463.3,223.7 489.9,224.0 516.6,223.4 543.2,224.0 569.8,223.4 596.4,223.7 623.0,222.7 649.7,223.4 676.3,223.7 702.9,224.0 729.5,103.9 756.1,48.0 782.8,215.4 809.4,220.8 836.0,218.6 836.0,224.0 64.0,224.0" fill="url(#grad1)"/>
    <polygon points="64.0,224.0 90.6,224.0 117.2,224.0 143.9,224.0 170.5,188.1 197.1,220.8 223.7,220.8 250.3,223.7 277.0,224.0 303.6,223.7 330.2,224.0 356.8,223.7 383.4,223.4 410.1,223.0 436.7,223.0 463.3,223.7 489.9,224.0 516.6,223.7 543.2,221.8 569.8,224.0 596.4,224.0 623.0,224.0 649.7,222.1 676.3,223.7 702.9,224.0 729.5,107.7 756.1,52.4 782.8,214.8 809.4,220.8 836.0,220.2 836.0,224.0 64.0,224.0" fill="url(#grad2)"/>

  <!-- Lines -->
  
    <polyline points="64.0,223.4 90.6,223.7 117.2,210.7 143.9,158.6 170.5,178.6 197.1,206.2 223.7,221.8 250.3,212.2 277.0,223.7 303.6,216.1 330.2,224.0 356.8,223.7 383.4,223.7 410.1,223.4 436.7,224.0 463.3,224.0 489.9,223.0 516.6,217.0 543.2,224.0 569.8,218.3 596.4,220.5 623.0,224.0 649.7,221.1 676.3,222.7 702.9,212.9 729.5,103.9 756.1,66.1 782.8,213.8 809.4,220.5 836.0,220.5"
      fill="none" stroke="#6366f1" stroke-width="2.2"
      stroke-linejoin="round" stroke-linecap="round"/>
    <polyline points="64.0,224.0 90.6,224.0 117.2,224.0 143.9,224.0 170.5,186.5 197.1,220.8 223.7,221.8 250.3,223.7 277.0,224.0 303.6,223.7 330.2,224.0 356.8,223.7 383.4,223.4 410.1,223.0 436.7,224.0 463.3,223.7 489.9,224.0 516.6,223.4 543.2,224.0 569.8,223.4 596.4,223.7 623.0,222.7 649.7,223.4 676.3,223.7 702.9,224.0 729.5,103.9 756.1,48.0 782.8,215.4 809.4,220.8 836.0,218.6"
      fill="none" stroke="#10b981" stroke-width="2.2"
      stroke-linejoin="round" stroke-linecap="round"/>
    <polyline points="64.0,224.0 90.6,224.0 117.2,224.0 143.9,224.0 170.5,188.1 197.1,220.8 223.7,220.8 250.3,223.7 277.0,224.0 303.6,223.7 330.2,224.0 356.8,223.7 383.4,223.4 410.1,223.0 436.7,223.0 463.3,223.7 489.9,224.0 516.6,223.7 543.2,221.8 569.8,224.0 596.4,224.0 623.0,224.0 649.7,222.1 676.3,223.7 702.9,224.0 729.5,107.7 756.1,52.4 782.8,214.8 809.4,220.8 836.0,220.2"
      fill="none" stroke="#f59e0b" stroke-width="2.2"
      stroke-linejoin="round" stroke-linecap="round"/>

  <!-- X axis labels -->
  
    <text x="64.0" y="242"
      text-anchor="middle" font-size="11" fill="#6b7280">May 16</text>
    <text x="197.1" y="242"
      text-anchor="middle" font-size="11" fill="#6b7280">May 21</text>
    <text x="330.2" y="242"
      text-anchor="middle" font-size="11" fill="#6b7280">May 26</text>
    <text x="463.3" y="242"
      text-anchor="middle" font-size="11" fill="#6b7280">May 31</text>
    <text x="596.4" y="242"
      text-anchor="middle" font-size="11" fill="#6b7280">Jun 5</text>
    <text x="729.5" y="242"
      text-anchor="middle" font-size="11" fill="#6b7280">Jun 10</text>
    <text x="836.0" y="242"
      text-anchor="middle" font-size="11" fill="#6b7280">Jun 14</text>

  <!-- End-point dots -->
  
    <circle cx="836.0" cy="220.5" r="4"
      fill="#6366f1" stroke="#fff" stroke-width="2">
      <title>11 downloads</title>
    </circle>
    <circle cx="836.0" cy="218.6" r="4"
      fill="#10b981" stroke="#fff" stroke-width="2">
      <title>17 downloads</title>
    </circle>
    <circle cx="836.0" cy="220.2" r="4"
      fill="#f59e0b" stroke="#fff" stroke-width="2">
      <title>12 downloads</title>
    </circle>

  <!-- Legend (top-left) -->
  
    <rect x="64" y="12" width="12" height="12" rx="3" fill="#6366f1"/>
    <text x="82" y="22" font-size="13" fill="#374151" font-weight="600">
      @doquflow/cli
    </text>
    <text x="82" y="36" font-size="11" fill="#6b7280">
      1,555 last 30 days
    </text>
    <rect x="284" y="12" width="12" height="12" rx="3" fill="#10b981"/>
    <text x="302" y="22" font-size="13" fill="#374151" font-weight="600">
      @doquflow/core
    </text>
    <text x="302" y="36" font-size="11" fill="#6b7280">
      1,142 last 30 days
    </text>
    <rect x="504" y="12" width="12" height="12" rx="3" fill="#f59e0b"/>
    <text x="522" y="22" font-size="13" fill="#374151" font-weight="600">
      @doquflow/studio
    </text>
    <text x="522" y="36" font-size="11" fill="#6b7280">
      1,117 last 30 days
    </text>

  <!-- Updated timestamp (bottom-right) -->
  <text x="836" y="272" text-anchor="end"
    font-size="10" fill="#9ca3af">Updated 2026-06-15</text>

  <!-- Axes -->
  <line x1="64" y1="48" x2="64" y2="224"
    stroke="#d1d5db" stroke-width="1"/>
  <line x1="64" y1="224" x2="836" y2="224"
    stroke="#d1d5db" stroke-width="1"/>
</svg>