<svg xmlns="http://www.w3.org/2000/svg" width="860" height="280"
  viewBox="0 0 860 280" style="background:#fff;border-radius:12px;font-family:system-ui,sans-serif">
  <defs>
    <linearGradient id="grad0" x1="0" y1="0" x2="0" y2="1">
      <stop offset="0%"   stop-color="#818cf8" stop-opacity="0.35"/>
      <stop offset="100%" stop-color="#818cf8" stop-opacity="0.02"/>
    </linearGradient>
    <linearGradient id="grad1" x1="0" y1="0" x2="0" y2="1">
      <stop offset="0%"   stop-color="#34d399" stop-opacity="0.35"/>
      <stop offset="100%" stop-color="#34d399" stop-opacity="0.02"/>
    </linearGradient>
    <linearGradient id="grad2" x1="0" y1="0" x2="0" y2="1">
      <stop offset="0%"   stop-color="#fbbf24" stop-opacity="0.35"/>
      <stop offset="100%" stop-color="#fbbf24" stop-opacity="0.02"/>
    </linearGradient>
  </defs>

  <!-- Y grid + labels -->
  
    <line x1="64" y1="224.0" x2="836" y2="224.0"
      stroke="#e5e7eb" stroke-width="1"/>
    <text x="56" y="224.0" text-anchor="end" dominant-baseline="middle"
      font-size="11" fill="#6b7280">0</text>
    <line x1="64" y1="180.0" x2="836" y2="180.0"
      stroke="#e5e7eb" stroke-width="1"/>
    <text x="56" y="180.0" text-anchor="end" dominant-baseline="middle"
      font-size="11" fill="#6b7280">167</text>
    <line x1="64" y1="136.0" x2="836" y2="136.0"
      stroke="#e5e7eb" stroke-width="1"/>
    <text x="56" y="136.0" text-anchor="end" dominant-baseline="middle"
      font-size="11" fill="#6b7280">334</text>
    <line x1="64" y1="92.0" x2="836" y2="92.0"
      stroke="#e5e7eb" stroke-width="1"/>
    <text x="56" y="92.0" text-anchor="end" dominant-baseline="middle"
      font-size="11" fill="#6b7280">501</text>
    <line x1="64" y1="48.0" x2="836" y2="48.0"
      stroke="#e5e7eb" stroke-width="1"/>
    <text x="56" y="48.0" text-anchor="end" dominant-baseline="middle"
      font-size="11" fill="#6b7280">668</text>

  <!-- Areas -->
  
    <polygon points="64.0,221.6 90.6,222.7 117.2,223.7 143.9,48.0 170.5,219.8 197.1,219.3 223.7,215.6 250.3,220.6 277.0,223.7 303.6,223.7 330.2,221.1 356.8,65.7 383.4,210.8 410.1,223.5 436.7,221.6 463.3,218.7 489.9,219.5 516.6,74.6 543.2,214.3 569.8,56.4 596.4,215.8 623.0,211.1 649.7,215.8 676.3,186.9 702.9,217.4 729.5,219.3 756.1,223.5 782.8,223.7 809.4,212.9 836.0,169.7 836.0,224.0 64.0,224.0" fill="url(#grad0)"/>
    <polygon points="64.0,224.0 90.6,224.0 117.2,224.0 143.9,224.0 170.5,224.0 197.1,224.0 223.7,224.0 250.3,224.0 277.0,224.0 303.6,224.0 330.2,224.0 356.8,224.0 383.4,224.0 410.1,224.0 436.7,224.0 463.3,224.0 489.9,224.0 516.6,224.0 543.2,224.0 569.8,224.0 596.4,224.0 623.0,224.0 649.7,224.0 676.3,224.0 702.9,224.0 729.5,224.0 756.1,224.0 782.8,224.0 809.4,224.0 836.0,224.0 836.0,224.0 64.0,224.0" fill="url(#grad1)"/>
    <polygon points="64.0,224.0 90.6,224.0 117.2,224.0 143.9,224.0 170.5,224.0 197.1,224.0 223.7,224.0 250.3,224.0 277.0,224.0 303.6,224.0 330.2,224.0 356.8,224.0 383.4,224.0 410.1,224.0 436.7,224.0 463.3,224.0 489.9,224.0 516.6,224.0 543.2,224.0 569.8,224.0 596.4,224.0 623.0,224.0 649.7,224.0 676.3,224.0 702.9,224.0 729.5,224.0 756.1,224.0 782.8,224.0 809.4,224.0 836.0,224.0 836.0,224.0 64.0,224.0" fill="url(#grad2)"/>

  <!-- Lines -->
  
    <polyline points="64.0,221.6 90.6,222.7 117.2,223.7 143.9,48.0 170.5,219.8 197.1,219.3 223.7,215.6 250.3,220.6 277.0,223.7 303.6,223.7 330.2,221.1 356.8,65.7 383.4,210.8 410.1,223.5 436.7,221.6 463.3,218.7 489.9,219.5 516.6,74.6 543.2,214.3 569.8,56.4 596.4,215.8 623.0,211.1 649.7,215.8 676.3,186.9 702.9,217.4 729.5,219.3 756.1,223.5 782.8,223.7 809.4,212.9 836.0,169.7"
      fill="none" stroke="#6366f1" stroke-width="2.2"
      stroke-linejoin="round" stroke-linecap="round"/>
    <polyline points="64.0,224.0 90.6,224.0 117.2,224.0 143.9,224.0 170.5,224.0 197.1,224.0 223.7,224.0 250.3,224.0 277.0,224.0 303.6,224.0 330.2,224.0 356.8,224.0 383.4,224.0 410.1,224.0 436.7,224.0 463.3,224.0 489.9,224.0 516.6,224.0 543.2,224.0 569.8,224.0 596.4,224.0 623.0,224.0 649.7,224.0 676.3,224.0 702.9,224.0 729.5,224.0 756.1,224.0 782.8,224.0 809.4,224.0 836.0,224.0"
      fill="none" stroke="#10b981" stroke-width="2.2"
      stroke-linejoin="round" stroke-linecap="round"/>
    <polyline points="64.0,224.0 90.6,224.0 117.2,224.0 143.9,224.0 170.5,224.0 197.1,224.0 223.7,224.0 250.3,224.0 277.0,224.0 303.6,224.0 330.2,224.0 356.8,224.0 383.4,224.0 410.1,224.0 436.7,224.0 463.3,224.0 489.9,224.0 516.6,224.0 543.2,224.0 569.8,224.0 596.4,224.0 623.0,224.0 649.7,224.0 676.3,224.0 702.9,224.0 729.5,224.0 756.1,224.0 782.8,224.0 809.4,224.0 836.0,224.0"
      fill="none" stroke="#f59e0b" stroke-width="2.2"
      stroke-linejoin="round" stroke-linecap="round"/>

  <!-- X axis labels -->
  
    <text x="64.0" y="242"
      text-anchor="middle" font-size="11" fill="#6b7280">Apr 20</text>
    <text x="197.1" y="242"
      text-anchor="middle" font-size="11" fill="#6b7280">Apr 25</text>
    <text x="330.2" y="242"
      text-anchor="middle" font-size="11" fill="#6b7280">Apr 30</text>
    <text x="463.3" y="242"
      text-anchor="middle" font-size="11" fill="#6b7280">May 5</text>
    <text x="596.4" y="242"
      text-anchor="middle" font-size="11" fill="#6b7280">May 10</text>
    <text x="729.5" y="242"
      text-anchor="middle" font-size="11" fill="#6b7280">May 15</text>
    <text x="836.0" y="242"
      text-anchor="middle" font-size="11" fill="#6b7280">May 19</text>

  <!-- End-point dots -->
  
    <circle cx="836.0" cy="169.7" r="4"
      fill="#6366f1" stroke="#fff" stroke-width="2">
      <title>206 downloads</title>
    </circle>
    <circle cx="836.0" cy="224.0" r="4"
      fill="#10b981" stroke="#fff" stroke-width="2">
      <title>0 downloads</title>
    </circle>
    <circle cx="836.0" cy="224.0" r="4"
      fill="#f59e0b" stroke="#fff" stroke-width="2">
      <title>0 downloads</title>
    </circle>

  <!-- Legend (top-left) -->
  
    <rect x="64" y="12" width="12" height="12" rx="3" fill="#6366f1"/>
    <text x="82" y="22" font-size="13" fill="#374151" font-weight="600">
      @doquflow/cli
    </text>
    <text x="82" y="36" font-size="11" fill="#6b7280">
      3,260 last 30 days
    </text>
    <rect x="284" y="12" width="12" height="12" rx="3" fill="#10b981"/>
    <text x="302" y="22" font-size="13" fill="#374151" font-weight="600">
      @doquflow/core
    </text>
    <text x="302" y="36" font-size="11" fill="#6b7280">
      0 last 30 days
    </text>
    <rect x="504" y="12" width="12" height="12" rx="3" fill="#f59e0b"/>
    <text x="522" y="22" font-size="13" fill="#374151" font-weight="600">
      @doquflow/studio
    </text>
    <text x="522" y="36" font-size="11" fill="#6b7280">
      0 last 30 days
    </text>

  <!-- Updated timestamp (bottom-right) -->
  <text x="836" y="272" text-anchor="end"
    font-size="10" fill="#9ca3af">Updated 2026-05-21</text>

  <!-- Axes -->
  <line x1="64" y1="48" x2="64" y2="224"
    stroke="#d1d5db" stroke-width="1"/>
  <line x1="64" y1="224" x2="836" y2="224"
    stroke="#d1d5db" stroke-width="1"/>
</svg>