<svg xmlns="http://www.w3.org/2000/svg" width="860" height="280"
  viewBox="0 0 860 280" style="background:#fff;border-radius:12px;font-family:system-ui,sans-serif">
  <defs>
    <linearGradient id="grad0" x1="0" y1="0" x2="0" y2="1">
      <stop offset="0%"   stop-color="#818cf8" stop-opacity="0.35"/>
      <stop offset="100%" stop-color="#818cf8" stop-opacity="0.02"/>
    </linearGradient>
    <linearGradient id="grad1" x1="0" y1="0" x2="0" y2="1">
      <stop offset="0%"   stop-color="#34d399" stop-opacity="0.35"/>
      <stop offset="100%" stop-color="#34d399" stop-opacity="0.02"/>
    </linearGradient>
    <linearGradient id="grad2" x1="0" y1="0" x2="0" y2="1">
      <stop offset="0%"   stop-color="#fbbf24" stop-opacity="0.35"/>
      <stop offset="100%" stop-color="#fbbf24" stop-opacity="0.02"/>
    </linearGradient>
  </defs>

  <!-- Y grid + labels -->
  
    <line x1="64" y1="224.0" x2="836" y2="224.0"
      stroke="#e5e7eb" stroke-width="1"/>
    <text x="56" y="224.0" text-anchor="end" dominant-baseline="middle"
      font-size="11" fill="#6b7280">0</text>
    <line x1="64" y1="178.2" x2="836" y2="178.2"
      stroke="#e5e7eb" stroke-width="1"/>
    <text x="56" y="178.2" text-anchor="end" dominant-baseline="middle"
      font-size="11" fill="#6b7280">13</text>
    <line x1="64" y1="136.0" x2="836" y2="136.0"
      stroke="#e5e7eb" stroke-width="1"/>
    <text x="56" y="136.0" text-anchor="end" dominant-baseline="middle"
      font-size="11" fill="#6b7280">25</text>
    <line x1="64" y1="90.2" x2="836" y2="90.2"
      stroke="#e5e7eb" stroke-width="1"/>
    <text x="56" y="90.2" text-anchor="end" dominant-baseline="middle"
      font-size="11" fill="#6b7280">38</text>
    <line x1="64" y1="48.0" x2="836" y2="48.0"
      stroke="#e5e7eb" stroke-width="1"/>
    <text x="56" y="48.0" text-anchor="end" dominant-baseline="middle"
      font-size="11" fill="#6b7280">50</text>

  <!-- Areas -->
  
    <polygon points="64.0,171.2 90.6,188.8 117.2,76.2 143.9,209.9 170.5,220.5 197.1,76.2 223.7,199.4 250.3,217.0 277.0,185.3 303.6,220.5 330.2,217.0 356.8,48.0 383.4,178.2 410.1,48.0 436.7,220.5 463.3,199.4 489.9,213.4 516.6,217.0 543.2,192.3 569.8,224.0 596.4,171.2 623.0,192.3 649.7,224.0 676.3,213.4 702.9,136.0 729.5,192.3 756.1,217.0 782.8,209.9 809.4,217.0 836.0,213.4 836.0,224.0 64.0,224.0" fill="url(#grad0)"/>
    <polygon points="64.0,195.8 90.6,209.9 117.2,185.3 143.9,206.4 170.5,213.4 197.1,213.4 223.7,199.4 250.3,217.0 277.0,209.9 303.6,209.9 330.2,206.4 356.8,199.4 383.4,178.2 410.1,195.8 436.7,217.0 463.3,217.0 489.9,213.4 516.6,220.5 543.2,185.3 569.8,206.4 596.4,195.8 623.0,217.0 649.7,224.0 676.3,213.4 702.9,146.6 729.5,192.3 756.1,217.0 782.8,220.5 809.4,224.0 836.0,220.5 836.0,224.0 64.0,224.0" fill="url(#grad1)"/>
    <polygon points="64.0,192.3 90.6,202.9 117.2,181.8 143.9,209.9 170.5,213.4 197.1,213.4 223.7,188.8 250.3,217.0 277.0,213.4 303.6,209.9 330.2,206.4 356.8,199.4 383.4,188.8 410.1,199.4 436.7,220.5 463.3,220.5 489.9,220.5 516.6,224.0 543.2,199.4 569.8,199.4 596.4,185.3 623.0,220.5 649.7,224.0 676.3,217.0 702.9,139.5 729.5,195.8 756.1,220.5 782.8,217.0 809.4,220.5 836.0,220.5 836.0,224.0 64.0,224.0" fill="url(#grad2)"/>

  <!-- Lines -->
  
    <polyline points="64.0,171.2 90.6,188.8 117.2,76.2 143.9,209.9 170.5,220.5 197.1,76.2 223.7,199.4 250.3,217.0 277.0,185.3 303.6,220.5 330.2,217.0 356.8,48.0 383.4,178.2 410.1,48.0 436.7,220.5 463.3,199.4 489.9,213.4 516.6,217.0 543.2,192.3 569.8,224.0 596.4,171.2 623.0,192.3 649.7,224.0 676.3,213.4 702.9,136.0 729.5,192.3 756.1,217.0 782.8,209.9 809.4,217.0 836.0,213.4"
      fill="none" stroke="#6366f1" stroke-width="2.2"
      stroke-linejoin="round" stroke-linecap="round"/>
    <polyline points="64.0,195.8 90.6,209.9 117.2,185.3 143.9,206.4 170.5,213.4 197.1,213.4 223.7,199.4 250.3,217.0 277.0,209.9 303.6,209.9 330.2,206.4 356.8,199.4 383.4,178.2 410.1,195.8 436.7,217.0 463.3,217.0 489.9,213.4 516.6,220.5 543.2,185.3 569.8,206.4 596.4,195.8 623.0,217.0 649.7,224.0 676.3,213.4 702.9,146.6 729.5,192.3 756.1,217.0 782.8,220.5 809.4,224.0 836.0,220.5"
      fill="none" stroke="#10b981" stroke-width="2.2"
      stroke-linejoin="round" stroke-linecap="round"/>
    <polyline points="64.0,192.3 90.6,202.9 117.2,181.8 143.9,209.9 170.5,213.4 197.1,213.4 223.7,188.8 250.3,217.0 277.0,213.4 303.6,209.9 330.2,206.4 356.8,199.4 383.4,188.8 410.1,199.4 436.7,220.5 463.3,220.5 489.9,220.5 516.6,224.0 543.2,199.4 569.8,199.4 596.4,185.3 623.0,220.5 649.7,224.0 676.3,217.0 702.9,139.5 729.5,195.8 756.1,220.5 782.8,217.0 809.4,220.5 836.0,220.5"
      fill="none" stroke="#f59e0b" stroke-width="2.2"
      stroke-linejoin="round" stroke-linecap="round"/>

  <!-- X axis labels -->
  
    <text x="64.0" y="242"
      text-anchor="middle" font-size="11" fill="#6b7280">Jun 20</text>
    <text x="197.1" y="242"
      text-anchor="middle" font-size="11" fill="#6b7280">Jun 25</text>
    <text x="330.2" y="242"
      text-anchor="middle" font-size="11" fill="#6b7280">Jun 30</text>
    <text x="463.3" y="242"
      text-anchor="middle" font-size="11" fill="#6b7280">Jul 5</text>
    <text x="596.4" y="242"
      text-anchor="middle" font-size="11" fill="#6b7280">Jul 10</text>
    <text x="729.5" y="242"
      text-anchor="middle" font-size="11" fill="#6b7280">Jul 15</text>
    <text x="836.0" y="242"
      text-anchor="middle" font-size="11" fill="#6b7280">Jul 19</text>

  <!-- End-point dots -->
  
    <circle cx="836.0" cy="213.4" r="4"
      fill="#6366f1" stroke="#fff" stroke-width="2">
      <title>3 downloads</title>
    </circle>
    <circle cx="836.0" cy="220.5" r="4"
      fill="#10b981" stroke="#fff" stroke-width="2">
      <title>1 downloads</title>
    </circle>
    <circle cx="836.0" cy="220.5" r="4"
      fill="#f59e0b" stroke="#fff" stroke-width="2">
      <title>1 downloads</title>
    </circle>

  <!-- Legend (top-left) -->
  
    <rect x="64" y="12" width="12" height="12" rx="3" fill="#6366f1"/>
    <text x="82" y="22" font-size="13" fill="#374151" font-weight="600">
      @doquflow/cli
    </text>
    <text x="82" y="36" font-size="11" fill="#6b7280">
      344 last 30 days
    </text>
    <rect x="284" y="12" width="12" height="12" rx="3" fill="#10b981"/>
    <text x="302" y="22" font-size="13" fill="#374151" font-weight="600">
      @doquflow/core
    </text>
    <text x="302" y="36" font-size="11" fill="#6b7280">
      156 last 30 days
    </text>
    <rect x="504" y="12" width="12" height="12" rx="3" fill="#f59e0b"/>
    <text x="522" y="22" font-size="13" fill="#374151" font-weight="600">
      @doquflow/studio
    </text>
    <text x="522" y="36" font-size="11" fill="#6b7280">
      153 last 30 days
    </text>

  <!-- Updated timestamp (bottom-right) -->
  <text x="836" y="272" text-anchor="end"
    font-size="10" fill="#9ca3af">Updated 2026-07-20</text>

  <!-- Axes -->
  <line x1="64" y1="48" x2="64" y2="224"
    stroke="#d1d5db" stroke-width="1"/>
  <line x1="64" y1="224" x2="836" y2="224"
    stroke="#d1d5db" stroke-width="1"/>
</svg>