<svg xmlns="http://www.w3.org/2000/svg" width="860" height="280"
  viewBox="0 0 860 280" style="background:#fff;border-radius:12px;font-family:system-ui,sans-serif">
  <defs>
    <linearGradient id="grad0" x1="0" y1="0" x2="0" y2="1">
      <stop offset="0%"   stop-color="#818cf8" stop-opacity="0.35"/>
      <stop offset="100%" stop-color="#818cf8" stop-opacity="0.02"/>
    </linearGradient>
    <linearGradient id="grad1" x1="0" y1="0" x2="0" y2="1">
      <stop offset="0%"   stop-color="#34d399" stop-opacity="0.35"/>
      <stop offset="100%" stop-color="#34d399" stop-opacity="0.02"/>
    </linearGradient>
    <linearGradient id="grad2" x1="0" y1="0" x2="0" y2="1">
      <stop offset="0%"   stop-color="#fbbf24" stop-opacity="0.35"/>
      <stop offset="100%" stop-color="#fbbf24" stop-opacity="0.02"/>
    </linearGradient>
  </defs>

  <!-- Y grid + labels -->
  
    <line x1="64" y1="224.0" x2="836" y2="224.0"
      stroke="#e5e7eb" stroke-width="1"/>
    <text x="56" y="224.0" text-anchor="end" dominant-baseline="middle"
      font-size="11" fill="#6b7280">0</text>
    <line x1="64" y1="179.8" x2="836" y2="179.8"
      stroke="#e5e7eb" stroke-width="1"/>
    <text x="56" y="179.8" text-anchor="end" dominant-baseline="middle"
      font-size="11" fill="#6b7280">46</text>
    <line x1="64" y1="135.5" x2="836" y2="135.5"
      stroke="#e5e7eb" stroke-width="1"/>
    <text x="56" y="135.5" text-anchor="end" dominant-baseline="middle"
      font-size="11" fill="#6b7280">92</text>
    <line x1="64" y1="92.2" x2="836" y2="92.2"
      stroke="#e5e7eb" stroke-width="1"/>
    <text x="56" y="92.2" text-anchor="end" dominant-baseline="middle"
      font-size="11" fill="#6b7280">137</text>
    <line x1="64" y1="48.0" x2="836" y2="48.0"
      stroke="#e5e7eb" stroke-width="1"/>
    <text x="56" y="48.0" text-anchor="end" dominant-baseline="middle"
      font-size="11" fill="#6b7280">183</text>

  <!-- Areas -->
  
    <polygon points="64.0,193.2 90.6,213.4 117.2,213.4 143.9,224.0 170.5,214.4 197.1,211.5 223.7,81.7 250.3,63.4 277.0,209.6 303.6,214.4 330.2,183.6 356.8,220.2 383.4,223.0 410.1,183.6 436.7,217.3 463.3,222.1 489.9,213.4 516.6,223.0 543.2,222.1 569.8,175.9 596.4,211.5 623.0,175.9 649.7,223.0 676.3,217.3 702.9,221.1 729.5,222.1 756.1,215.3 782.8,224.0 809.4,209.6 836.0,215.3 836.0,224.0 64.0,224.0" fill="url(#grad0)"/>
    <polygon points="64.0,198.0 90.6,214.4 117.2,207.7 143.9,221.1 170.5,217.3 197.1,218.2 223.7,73.0 250.3,48.0 277.0,216.3 303.6,220.2 330.2,213.4 356.8,219.2 383.4,221.1 410.1,221.1 436.7,217.3 463.3,222.1 489.9,220.2 516.6,220.2 543.2,219.2 569.8,217.3 596.4,211.5 623.0,216.3 649.7,222.1 676.3,222.1 702.9,221.1 729.5,223.0 756.1,213.4 782.8,219.2 809.4,216.3 836.0,222.1 836.0,224.0 64.0,224.0" fill="url(#grad1)"/>
    <polygon points="64.0,196.1 90.6,214.4 117.2,212.5 143.9,224.0 170.5,214.4 197.1,219.2 223.7,78.8 250.3,53.8 277.0,215.3 303.6,218.2 330.2,212.5 356.8,220.2 383.4,221.1 410.1,221.1 436.7,214.4 463.3,222.1 489.9,221.1 516.6,220.2 543.2,219.2 569.8,217.3 596.4,214.4 623.0,217.3 649.7,223.0 676.3,223.0 702.9,223.0 729.5,224.0 756.1,217.3 782.8,217.3 809.4,213.4 836.0,223.0 836.0,224.0 64.0,224.0" fill="url(#grad2)"/>

  <!-- Lines -->
  
    <polyline points="64.0,193.2 90.6,213.4 117.2,213.4 143.9,224.0 170.5,214.4 197.1,211.5 223.7,81.7 250.3,63.4 277.0,209.6 303.6,214.4 330.2,183.6 356.8,220.2 383.4,223.0 410.1,183.6 436.7,217.3 463.3,222.1 489.9,213.4 516.6,223.0 543.2,222.1 569.8,175.9 596.4,211.5 623.0,175.9 649.7,223.0 676.3,217.3 702.9,221.1 729.5,222.1 756.1,215.3 782.8,224.0 809.4,209.6 836.0,215.3"
      fill="none" stroke="#6366f1" stroke-width="2.2"
      stroke-linejoin="round" stroke-linecap="round"/>
    <polyline points="64.0,198.0 90.6,214.4 117.2,207.7 143.9,221.1 170.5,217.3 197.1,218.2 223.7,73.0 250.3,48.0 277.0,216.3 303.6,220.2 330.2,213.4 356.8,219.2 383.4,221.1 410.1,221.1 436.7,217.3 463.3,222.1 489.9,220.2 516.6,220.2 543.2,219.2 569.8,217.3 596.4,211.5 623.0,216.3 649.7,222.1 676.3,222.1 702.9,221.1 729.5,223.0 756.1,213.4 782.8,219.2 809.4,216.3 836.0,222.1"
      fill="none" stroke="#10b981" stroke-width="2.2"
      stroke-linejoin="round" stroke-linecap="round"/>
    <polyline points="64.0,196.1 90.6,214.4 117.2,212.5 143.9,224.0 170.5,214.4 197.1,219.2 223.7,78.8 250.3,53.8 277.0,215.3 303.6,218.2 330.2,212.5 356.8,220.2 383.4,221.1 410.1,221.1 436.7,214.4 463.3,222.1 489.9,221.1 516.6,220.2 543.2,219.2 569.8,217.3 596.4,214.4 623.0,217.3 649.7,223.0 676.3,223.0 702.9,223.0 729.5,224.0 756.1,217.3 782.8,217.3 809.4,213.4 836.0,223.0"
      fill="none" stroke="#f59e0b" stroke-width="2.2"
      stroke-linejoin="round" stroke-linecap="round"/>

  <!-- X axis labels -->
  
    <text x="64.0" y="242"
      text-anchor="middle" font-size="11" fill="#6b7280">Jun 12</text>
    <text x="197.1" y="242"
      text-anchor="middle" font-size="11" fill="#6b7280">Jun 17</text>
    <text x="330.2" y="242"
      text-anchor="middle" font-size="11" fill="#6b7280">Jun 22</text>
    <text x="463.3" y="242"
      text-anchor="middle" font-size="11" fill="#6b7280">Jun 27</text>
    <text x="596.4" y="242"
      text-anchor="middle" font-size="11" fill="#6b7280">Jul 2</text>
    <text x="729.5" y="242"
      text-anchor="middle" font-size="11" fill="#6b7280">Jul 7</text>
    <text x="836.0" y="242"
      text-anchor="middle" font-size="11" fill="#6b7280">Jul 11</text>

  <!-- End-point dots -->
  
    <circle cx="836.0" cy="215.3" r="4"
      fill="#6366f1" stroke="#fff" stroke-width="2">
      <title>9 downloads</title>
    </circle>
    <circle cx="836.0" cy="222.1" r="4"
      fill="#10b981" stroke="#fff" stroke-width="2">
      <title>2 downloads</title>
    </circle>
    <circle cx="836.0" cy="223.0" r="4"
      fill="#f59e0b" stroke="#fff" stroke-width="2">
      <title>1 downloads</title>
    </circle>

  <!-- Legend (top-left) -->
  
    <rect x="64" y="12" width="12" height="12" rx="3" fill="#6366f1"/>
    <text x="82" y="22" font-size="13" fill="#374151" font-weight="600">
      @doquflow/cli
    </text>
    <text x="82" y="36" font-size="11" fill="#6b7280">
      688 last 30 days
    </text>
    <rect x="284" y="12" width="12" height="12" rx="3" fill="#10b981"/>
    <text x="302" y="22" font-size="13" fill="#374151" font-weight="600">
      @doquflow/core
    </text>
    <text x="302" y="36" font-size="11" fill="#6b7280">
      528 last 30 days
    </text>
    <rect x="504" y="12" width="12" height="12" rx="3" fill="#f59e0b"/>
    <text x="522" y="22" font-size="13" fill="#374151" font-weight="600">
      @doquflow/studio
    </text>
    <text x="522" y="36" font-size="11" fill="#6b7280">
      508 last 30 days
    </text>

  <!-- Updated timestamp (bottom-right) -->
  <text x="836" y="272" text-anchor="end"
    font-size="10" fill="#9ca3af">Updated 2026-07-13</text>

  <!-- Axes -->
  <line x1="64" y1="48" x2="64" y2="224"
    stroke="#d1d5db" stroke-width="1"/>
  <line x1="64" y1="224" x2="836" y2="224"
    stroke="#d1d5db" stroke-width="1"/>
</svg>