<svg xmlns="http://www.w3.org/2000/svg" width="860" height="280"
  viewBox="0 0 860 280" style="background:#fff;border-radius:12px;font-family:system-ui,sans-serif">
  <defs>
    <linearGradient id="grad0" x1="0" y1="0" x2="0" y2="1">
      <stop offset="0%"   stop-color="#818cf8" stop-opacity="0.35"/>
      <stop offset="100%" stop-color="#818cf8" stop-opacity="0.02"/>
    </linearGradient>
    <linearGradient id="grad1" x1="0" y1="0" x2="0" y2="1">
      <stop offset="0%"   stop-color="#34d399" stop-opacity="0.35"/>
      <stop offset="100%" stop-color="#34d399" stop-opacity="0.02"/>
    </linearGradient>
    <linearGradient id="grad2" x1="0" y1="0" x2="0" y2="1">
      <stop offset="0%"   stop-color="#fbbf24" stop-opacity="0.35"/>
      <stop offset="100%" stop-color="#fbbf24" stop-opacity="0.02"/>
    </linearGradient>
  </defs>

  <!-- Y grid + labels -->
  
    <line x1="64" y1="224.0" x2="836" y2="224.0"
      stroke="#e5e7eb" stroke-width="1"/>
    <text x="56" y="224.0" text-anchor="end" dominant-baseline="middle"
      font-size="11" fill="#6b7280">0</text>
    <line x1="64" y1="179.8" x2="836" y2="179.8"
      stroke="#e5e7eb" stroke-width="1"/>
    <text x="56" y="179.8" text-anchor="end" dominant-baseline="middle"
      font-size="11" fill="#6b7280">139</text>
    <line x1="64" y1="136.0" x2="836" y2="136.0"
      stroke="#e5e7eb" stroke-width="1"/>
    <text x="56" y="136.0" text-anchor="end" dominant-baseline="middle"
      font-size="11" fill="#6b7280">277</text>
    <line x1="64" y1="91.8" x2="836" y2="91.8"
      stroke="#e5e7eb" stroke-width="1"/>
    <text x="56" y="91.8" text-anchor="end" dominant-baseline="middle"
      font-size="11" fill="#6b7280">416</text>
    <line x1="64" y1="48.0" x2="836" y2="48.0"
      stroke="#e5e7eb" stroke-width="1"/>
    <text x="56" y="48.0" text-anchor="end" dominant-baseline="middle"
      font-size="11" fill="#6b7280">554</text>

  <!-- Areas -->
  
    <polygon points="64.0,224.0 90.6,221.1 117.2,222.7 143.9,212.9 170.5,103.9 197.1,66.1 223.7,213.8 250.3,220.5 277.0,220.5 303.6,224.0 330.2,220.8 356.8,219.9 383.4,177.0 410.1,170.9 436.7,219.2 463.3,220.8 489.9,210.7 516.6,222.7 543.2,223.7 569.8,210.7 596.4,221.8 623.0,223.4 649.7,220.5 676.3,223.7 702.9,223.4 729.5,208.1 756.1,219.9 782.8,208.1 809.4,223.7 836.0,221.8 836.0,224.0 64.0,224.0" fill="url(#grad0)"/>
    <polygon points="64.0,222.7 90.6,223.4 117.2,223.7 143.9,224.0 170.5,103.9 197.1,48.0 223.7,215.4 250.3,220.8 277.0,218.6 303.6,223.0 330.2,221.8 356.8,222.1 383.4,174.1 410.1,165.9 436.7,221.5 463.3,222.7 489.9,220.5 516.6,222.4 543.2,223.0 569.8,223.0 596.4,221.8 623.0,223.4 649.7,222.7 676.3,222.7 702.9,222.4 729.5,221.8 756.1,219.9 782.8,221.5 809.4,223.4 836.0,223.4 836.0,224.0 64.0,224.0" fill="url(#grad1)"/>
    <polygon points="64.0,224.0 90.6,222.1 117.2,223.7 143.9,224.0 170.5,107.7 197.1,52.4 223.7,214.8 250.3,220.8 277.0,220.2 303.6,224.0 330.2,220.8 356.8,222.4 383.4,176.0 410.1,167.8 436.7,221.1 463.3,222.1 489.9,220.2 516.6,222.7 543.2,223.0 569.8,223.0 596.4,220.8 623.0,223.4 649.7,223.0 676.3,222.7 702.9,222.4 729.5,221.8 756.1,220.8 782.8,221.8 809.4,223.7 836.0,223.7 836.0,224.0 64.0,224.0" fill="url(#grad2)"/>

  <!-- Lines -->
  
    <polyline points="64.0,224.0 90.6,221.1 117.2,222.7 143.9,212.9 170.5,103.9 197.1,66.1 223.7,213.8 250.3,220.5 277.0,220.5 303.6,224.0 330.2,220.8 356.8,219.9 383.4,177.0 410.1,170.9 436.7,219.2 463.3,220.8 489.9,210.7 516.6,222.7 543.2,223.7 569.8,210.7 596.4,221.8 623.0,223.4 649.7,220.5 676.3,223.7 702.9,223.4 729.5,208.1 756.1,219.9 782.8,208.1 809.4,223.7 836.0,221.8"
      fill="none" stroke="#6366f1" stroke-width="2.2"
      stroke-linejoin="round" stroke-linecap="round"/>
    <polyline points="64.0,222.7 90.6,223.4 117.2,223.7 143.9,224.0 170.5,103.9 197.1,48.0 223.7,215.4 250.3,220.8 277.0,218.6 303.6,223.0 330.2,221.8 356.8,222.1 383.4,174.1 410.1,165.9 436.7,221.5 463.3,222.7 489.9,220.5 516.6,222.4 543.2,223.0 569.8,223.0 596.4,221.8 623.0,223.4 649.7,222.7 676.3,222.7 702.9,222.4 729.5,221.8 756.1,219.9 782.8,221.5 809.4,223.4 836.0,223.4"
      fill="none" stroke="#10b981" stroke-width="2.2"
      stroke-linejoin="round" stroke-linecap="round"/>
    <polyline points="64.0,224.0 90.6,222.1 117.2,223.7 143.9,224.0 170.5,107.7 197.1,52.4 223.7,214.8 250.3,220.8 277.0,220.2 303.6,224.0 330.2,220.8 356.8,222.4 383.4,176.0 410.1,167.8 436.7,221.1 463.3,222.1 489.9,220.2 516.6,222.7 543.2,223.0 569.8,223.0 596.4,220.8 623.0,223.4 649.7,223.0 676.3,222.7 702.9,222.4 729.5,221.8 756.1,220.8 782.8,221.8 809.4,223.7 836.0,223.7"
      fill="none" stroke="#f59e0b" stroke-width="2.2"
      stroke-linejoin="round" stroke-linecap="round"/>

  <!-- X axis labels -->
  
    <text x="64.0" y="242"
      text-anchor="middle" font-size="11" fill="#6b7280">Jun 6</text>
    <text x="197.1" y="242"
      text-anchor="middle" font-size="11" fill="#6b7280">Jun 11</text>
    <text x="330.2" y="242"
      text-anchor="middle" font-size="11" fill="#6b7280">Jun 16</text>
    <text x="463.3" y="242"
      text-anchor="middle" font-size="11" fill="#6b7280">Jun 21</text>
    <text x="596.4" y="242"
      text-anchor="middle" font-size="11" fill="#6b7280">Jun 26</text>
    <text x="729.5" y="242"
      text-anchor="middle" font-size="11" fill="#6b7280">Jul 1</text>
    <text x="836.0" y="242"
      text-anchor="middle" font-size="11" fill="#6b7280">Jul 5</text>

  <!-- End-point dots -->
  
    <circle cx="836.0" cy="221.8" r="4"
      fill="#6366f1" stroke="#fff" stroke-width="2">
      <title>7 downloads</title>
    </circle>
    <circle cx="836.0" cy="223.4" r="4"
      fill="#10b981" stroke="#fff" stroke-width="2">
      <title>2 downloads</title>
    </circle>
    <circle cx="836.0" cy="223.7" r="4"
      fill="#f59e0b" stroke="#fff" stroke-width="2">
      <title>1 downloads</title>
    </circle>

  <!-- Legend (top-left) -->
  
    <rect x="64" y="12" width="12" height="12" rx="3" fill="#6366f1"/>
    <text x="82" y="22" font-size="13" fill="#374151" font-weight="600">
      @doquflow/cli
    </text>
    <text x="82" y="36" font-size="11" fill="#6b7280">
      1,573 last 30 days
    </text>
    <rect x="284" y="12" width="12" height="12" rx="3" fill="#10b981"/>
    <text x="302" y="22" font-size="13" fill="#374151" font-weight="600">
      @doquflow/core
    </text>
    <text x="302" y="36" font-size="11" fill="#6b7280">
      1,437 last 30 days
    </text>
    <rect x="504" y="12" width="12" height="12" rx="3" fill="#f59e0b"/>
    <text x="522" y="22" font-size="13" fill="#374151" font-weight="600">
      @doquflow/studio
    </text>
    <text x="522" y="36" font-size="11" fill="#6b7280">
      1,394 last 30 days
    </text>

  <!-- Updated timestamp (bottom-right) -->
  <text x="836" y="272" text-anchor="end"
    font-size="10" fill="#9ca3af">Updated 2026-07-06</text>

  <!-- Axes -->
  <line x1="64" y1="48" x2="64" y2="224"
    stroke="#d1d5db" stroke-width="1"/>
  <line x1="64" y1="224" x2="836" y2="224"
    stroke="#d1d5db" stroke-width="1"/>
</svg>