<svg xmlns="http://www.w3.org/2000/svg" width="860" height="280"
  viewBox="0 0 860 280" style="background:#fff;border-radius:12px;font-family:system-ui,sans-serif">
  <defs>
    <linearGradient id="grad0" x1="0" y1="0" x2="0" y2="1">
      <stop offset="0%"   stop-color="#818cf8" stop-opacity="0.35"/>
      <stop offset="100%" stop-color="#818cf8" stop-opacity="0.02"/>
    </linearGradient>
    <linearGradient id="grad1" x1="0" y1="0" x2="0" y2="1">
      <stop offset="0%"   stop-color="#34d399" stop-opacity="0.35"/>
      <stop offset="100%" stop-color="#34d399" stop-opacity="0.02"/>
    </linearGradient>
    <linearGradient id="grad2" x1="0" y1="0" x2="0" y2="1">
      <stop offset="0%"   stop-color="#fbbf24" stop-opacity="0.35"/>
      <stop offset="100%" stop-color="#fbbf24" stop-opacity="0.02"/>
    </linearGradient>
  </defs>

  <!-- Y grid + labels -->
  
    <line x1="64" y1="224.0" x2="836" y2="224.0"
      stroke="#e5e7eb" stroke-width="1"/>
    <text x="56" y="224.0" text-anchor="end" dominant-baseline="middle"
      font-size="11" fill="#6b7280">0</text>
    <line x1="64" y1="179.8" x2="836" y2="179.8"
      stroke="#e5e7eb" stroke-width="1"/>
    <text x="56" y="179.8" text-anchor="end" dominant-baseline="middle"
      font-size="11" fill="#6b7280">139</text>
    <line x1="64" y1="136.0" x2="836" y2="136.0"
      stroke="#e5e7eb" stroke-width="1"/>
    <text x="56" y="136.0" text-anchor="end" dominant-baseline="middle"
      font-size="11" fill="#6b7280">277</text>
    <line x1="64" y1="91.8" x2="836" y2="91.8"
      stroke="#e5e7eb" stroke-width="1"/>
    <text x="56" y="91.8" text-anchor="end" dominant-baseline="middle"
      font-size="11" fill="#6b7280">416</text>
    <line x1="64" y1="48.0" x2="836" y2="48.0"
      stroke="#e5e7eb" stroke-width="1"/>
    <text x="56" y="48.0" text-anchor="end" dominant-baseline="middle"
      font-size="11" fill="#6b7280">554</text>

  <!-- Areas -->
  
    <polygon points="64.0,212.2 90.6,223.7 117.2,216.1 143.9,224.0 170.5,223.7 197.1,223.7 223.7,223.4 250.3,224.0 277.0,224.0 303.6,223.0 330.2,217.0 356.8,224.0 383.4,218.3 410.1,220.5 436.7,224.0 463.3,221.1 489.9,222.7 516.6,212.9 543.2,103.9 569.8,66.1 596.4,213.8 623.0,220.5 649.7,220.5 676.3,224.0 702.9,220.8 729.5,219.9 756.1,177.0 782.8,170.9 809.4,219.2 836.0,220.8 836.0,224.0 64.0,224.0" fill="url(#grad0)"/>
    <polygon points="64.0,223.7 90.6,224.0 117.2,223.7 143.9,224.0 170.5,223.7 197.1,223.4 223.7,223.0 250.3,224.0 277.0,223.7 303.6,224.0 330.2,223.4 356.8,224.0 383.4,223.4 410.1,223.7 436.7,222.7 463.3,223.4 489.9,223.7 516.6,224.0 543.2,103.9 569.8,48.0 596.4,215.4 623.0,220.8 649.7,218.6 676.3,223.0 702.9,221.8 729.5,222.1 756.1,174.1 782.8,165.9 809.4,221.5 836.0,222.7 836.0,224.0 64.0,224.0" fill="url(#grad1)"/>
    <polygon points="64.0,223.7 90.6,224.0 117.2,223.7 143.9,224.0 170.5,223.7 197.1,223.4 223.7,223.0 250.3,223.0 277.0,223.7 303.6,224.0 330.2,223.7 356.8,221.8 383.4,224.0 410.1,224.0 436.7,224.0 463.3,222.1 489.9,223.7 516.6,224.0 543.2,107.7 569.8,52.4 596.4,214.8 623.0,220.8 649.7,220.2 676.3,224.0 702.9,220.8 729.5,222.4 756.1,176.0 782.8,167.8 809.4,221.1 836.0,222.1 836.0,224.0 64.0,224.0" fill="url(#grad2)"/>

  <!-- Lines -->
  
    <polyline points="64.0,212.2 90.6,223.7 117.2,216.1 143.9,224.0 170.5,223.7 197.1,223.7 223.7,223.4 250.3,224.0 277.0,224.0 303.6,223.0 330.2,217.0 356.8,224.0 383.4,218.3 410.1,220.5 436.7,224.0 463.3,221.1 489.9,222.7 516.6,212.9 543.2,103.9 569.8,66.1 596.4,213.8 623.0,220.5 649.7,220.5 676.3,224.0 702.9,220.8 729.5,219.9 756.1,177.0 782.8,170.9 809.4,219.2 836.0,220.8"
      fill="none" stroke="#6366f1" stroke-width="2.2"
      stroke-linejoin="round" stroke-linecap="round"/>
    <polyline points="64.0,223.7 90.6,224.0 117.2,223.7 143.9,224.0 170.5,223.7 197.1,223.4 223.7,223.0 250.3,224.0 277.0,223.7 303.6,224.0 330.2,223.4 356.8,224.0 383.4,223.4 410.1,223.7 436.7,222.7 463.3,223.4 489.9,223.7 516.6,224.0 543.2,103.9 569.8,48.0 596.4,215.4 623.0,220.8 649.7,218.6 676.3,223.0 702.9,221.8 729.5,222.1 756.1,174.1 782.8,165.9 809.4,221.5 836.0,222.7"
      fill="none" stroke="#10b981" stroke-width="2.2"
      stroke-linejoin="round" stroke-linecap="round"/>
    <polyline points="64.0,223.7 90.6,224.0 117.2,223.7 143.9,224.0 170.5,223.7 197.1,223.4 223.7,223.0 250.3,223.0 277.0,223.7 303.6,224.0 330.2,223.7 356.8,221.8 383.4,224.0 410.1,224.0 436.7,224.0 463.3,222.1 489.9,223.7 516.6,224.0 543.2,107.7 569.8,52.4 596.4,214.8 623.0,220.8 649.7,220.2 676.3,224.0 702.9,220.8 729.5,222.4 756.1,176.0 782.8,167.8 809.4,221.1 836.0,222.1"
      fill="none" stroke="#f59e0b" stroke-width="2.2"
      stroke-linejoin="round" stroke-linecap="round"/>

  <!-- X axis labels -->
  
    <text x="64.0" y="242"
      text-anchor="middle" font-size="11" fill="#6b7280">May 23</text>
    <text x="197.1" y="242"
      text-anchor="middle" font-size="11" fill="#6b7280">May 28</text>
    <text x="330.2" y="242"
      text-anchor="middle" font-size="11" fill="#6b7280">Jun 2</text>
    <text x="463.3" y="242"
      text-anchor="middle" font-size="11" fill="#6b7280">Jun 7</text>
    <text x="596.4" y="242"
      text-anchor="middle" font-size="11" fill="#6b7280">Jun 12</text>
    <text x="729.5" y="242"
      text-anchor="middle" font-size="11" fill="#6b7280">Jun 17</text>
    <text x="836.0" y="242"
      text-anchor="middle" font-size="11" fill="#6b7280">Jun 21</text>

  <!-- End-point dots -->
  
    <circle cx="836.0" cy="220.8" r="4"
      fill="#6366f1" stroke="#fff" stroke-width="2">
      <title>10 downloads</title>
    </circle>
    <circle cx="836.0" cy="222.7" r="4"
      fill="#10b981" stroke="#fff" stroke-width="2">
      <title>4 downloads</title>
    </circle>
    <circle cx="836.0" cy="222.1" r="4"
      fill="#f59e0b" stroke="#fff" stroke-width="2">
      <title>6 downloads</title>
    </circle>

  <!-- Legend (top-left) -->
  
    <rect x="64" y="12" width="12" height="12" rx="3" fill="#6366f1"/>
    <text x="82" y="22" font-size="13" fill="#374151" font-weight="600">
      @doquflow/cli
    </text>
    <text x="82" y="36" font-size="11" fill="#6b7280">
      1,461 last 30 days
    </text>
    <rect x="284" y="12" width="12" height="12" rx="3" fill="#10b981"/>
    <text x="302" y="22" font-size="13" fill="#374151" font-weight="600">
      @doquflow/core
    </text>
    <text x="302" y="36" font-size="11" fill="#6b7280">
      1,375 last 30 days
    </text>
    <rect x="504" y="12" width="12" height="12" rx="3" fill="#f59e0b"/>
    <text x="522" y="22" font-size="13" fill="#374151" font-weight="600">
      @doquflow/studio
    </text>
    <text x="522" y="36" font-size="11" fill="#6b7280">
      1,342 last 30 days
    </text>

  <!-- Updated timestamp (bottom-right) -->
  <text x="836" y="272" text-anchor="end"
    font-size="10" fill="#9ca3af">Updated 2026-06-22</text>

  <!-- Axes -->
  <line x1="64" y1="48" x2="64" y2="224"
    stroke="#d1d5db" stroke-width="1"/>
  <line x1="64" y1="224" x2="836" y2="224"
    stroke="#d1d5db" stroke-width="1"/>
</svg>