<svg xmlns="http://www.w3.org/2000/svg" width="860" height="280"
  viewBox="0 0 860 280" style="background:#fff;border-radius:12px;font-family:system-ui,sans-serif">
  <defs>
    <linearGradient id="grad0" x1="0" y1="0" x2="0" y2="1">
      <stop offset="0%"   stop-color="#818cf8" stop-opacity="0.35"/>
      <stop offset="100%" stop-color="#818cf8" stop-opacity="0.02"/>
    </linearGradient>
    <linearGradient id="grad1" x1="0" y1="0" x2="0" y2="1">
      <stop offset="0%"   stop-color="#34d399" stop-opacity="0.35"/>
      <stop offset="100%" stop-color="#34d399" stop-opacity="0.02"/>
    </linearGradient>
  </defs>

  <!-- Y grid + labels -->
  
    <line x1="64" y1="224.0" x2="836" y2="224.0"
      stroke="#e5e7eb" stroke-width="1"/>
    <text x="56" y="224.0" text-anchor="end" dominant-baseline="middle"
      font-size="11" fill="#6b7280">0</text>
    <line x1="64" y1="179.9" x2="836" y2="179.9"
      stroke="#e5e7eb" stroke-width="1"/>
    <text x="56" y="179.9" text-anchor="end" dominant-baseline="middle"
      font-size="11" fill="#6b7280">183</text>
    <line x1="64" y1="136.0" x2="836" y2="136.0"
      stroke="#e5e7eb" stroke-width="1"/>
    <text x="56" y="136.0" text-anchor="end" dominant-baseline="middle"
      font-size="11" fill="#6b7280">365</text>
    <line x1="64" y1="91.9" x2="836" y2="91.9"
      stroke="#e5e7eb" stroke-width="1"/>
    <text x="56" y="91.9" text-anchor="end" dominant-baseline="middle"
      font-size="11" fill="#6b7280">548</text>
    <line x1="64" y1="48.0" x2="836" y2="48.0"
      stroke="#e5e7eb" stroke-width="1"/>
    <text x="56" y="48.0" text-anchor="end" dominant-baseline="middle"
      font-size="11" fill="#6b7280">730</text>

  <!-- Areas -->
  
    <polygon points="64.0,224.0 90.6,169.8 117.2,220.1 143.9,219.7 170.5,222.3 197.1,221.8 223.7,222.8 250.3,223.8 277.0,62.9 303.6,220.1 330.2,219.7 356.8,216.3 383.4,220.9 410.1,223.8 436.7,223.8 463.3,221.3 489.9,79.1 516.6,211.9 543.2,223.5 569.8,221.8 596.4,219.2 623.0,219.9 649.7,87.3 676.3,215.1 702.9,70.7 729.5,216.5 756.1,212.2 782.8,216.5 809.4,190.0 836.0,218.0 836.0,224.0 64.0,224.0" fill="url(#grad0)"/>
    <polygon points="64.0,224.0 90.6,165.9 117.2,219.9 143.9,219.9 170.5,221.3 197.1,221.8 223.7,222.8 250.3,223.8 277.0,48.0 303.6,220.4 330.2,217.2 356.8,212.9 383.4,220.6 410.1,223.8 436.7,224.0 463.3,220.6 489.9,72.1 516.6,214.1 543.2,222.6 569.8,218.7 596.4,223.0 623.0,219.7 649.7,79.1 676.3,215.6 702.9,54.5 729.5,214.1 756.1,209.5 782.8,216.3 809.4,186.9 836.0,219.2 836.0,224.0 64.0,224.0" fill="url(#grad1)"/>

  <!-- Lines -->
  
    <polyline points="64.0,224.0 90.6,169.8 117.2,220.1 143.9,219.7 170.5,222.3 197.1,221.8 223.7,222.8 250.3,223.8 277.0,62.9 303.6,220.1 330.2,219.7 356.8,216.3 383.4,220.9 410.1,223.8 436.7,223.8 463.3,221.3 489.9,79.1 516.6,211.9 543.2,223.5 569.8,221.8 596.4,219.2 623.0,219.9 649.7,87.3 676.3,215.1 702.9,70.7 729.5,216.5 756.1,212.2 782.8,216.5 809.4,190.0 836.0,218.0"
      fill="none" stroke="#6366f1" stroke-width="2.2"
      stroke-linejoin="round" stroke-linecap="round"/>
    <polyline points="64.0,224.0 90.6,165.9 117.2,219.9 143.9,219.9 170.5,221.3 197.1,221.8 223.7,222.8 250.3,223.8 277.0,48.0 303.6,220.4 330.2,217.2 356.8,212.9 383.4,220.6 410.1,223.8 436.7,224.0 463.3,220.6 489.9,72.1 516.6,214.1 543.2,222.6 569.8,218.7 596.4,223.0 623.0,219.7 649.7,79.1 676.3,215.6 702.9,54.5 729.5,214.1 756.1,209.5 782.8,216.3 809.4,186.9 836.0,219.2"
      fill="none" stroke="#10b981" stroke-width="2.2"
      stroke-linejoin="round" stroke-linecap="round"/>

  <!-- X axis labels -->
  
    <text x="64.0" y="242"
      text-anchor="middle" font-size="11" fill="#6b7280">Apr 15</text>
    <text x="197.1" y="242"
      text-anchor="middle" font-size="11" fill="#6b7280">Apr 20</text>
    <text x="330.2" y="242"
      text-anchor="middle" font-size="11" fill="#6b7280">Apr 25</text>
    <text x="463.3" y="242"
      text-anchor="middle" font-size="11" fill="#6b7280">Apr 30</text>
    <text x="596.4" y="242"
      text-anchor="middle" font-size="11" fill="#6b7280">May 5</text>
    <text x="729.5" y="242"
      text-anchor="middle" font-size="11" fill="#6b7280">May 10</text>
    <text x="836.0" y="242"
      text-anchor="middle" font-size="11" fill="#6b7280">May 14</text>

  <!-- End-point dots -->
  
    <circle cx="836.0" cy="218.0" r="4"
      fill="#6366f1" stroke="#fff" stroke-width="2">
      <title>25 downloads</title>
    </circle>
    <circle cx="836.0" cy="219.2" r="4"
      fill="#10b981" stroke="#fff" stroke-width="2">
      <title>20 downloads</title>
    </circle>

  <!-- Legend (top-left) -->
  
    <rect x="64" y="12" width="12" height="12" rx="3" fill="#6366f1"/>
    <text x="82" y="22" font-size="13" fill="#374151" font-weight="600">
      @doquflow/cli
    </text>
    <text x="82" y="36" font-size="11" fill="#6b7280">
      3,257 last 30 days
    </text>
    <rect x="284" y="12" width="12" height="12" rx="3" fill="#10b981"/>
    <text x="302" y="22" font-size="13" fill="#374151" font-weight="600">
      @doquflow/server
    </text>
    <text x="302" y="36" font-size="11" fill="#6b7280">
      3,516 last 30 days
    </text>

  <!-- Updated timestamp (bottom-right) -->
  <text x="836" y="272" text-anchor="end"
    font-size="10" fill="#9ca3af">Updated 2026-05-16</text>

  <!-- Axes -->
  <line x1="64" y1="48" x2="64" y2="224"
    stroke="#d1d5db" stroke-width="1"/>
  <line x1="64" y1="224" x2="836" y2="224"
    stroke="#d1d5db" stroke-width="1"/>
</svg>