<svg xmlns="http://www.w3.org/2000/svg" width="860" height="280"
  viewBox="0 0 860 280" style="background:#fff;border-radius:12px;font-family:system-ui,sans-serif">
  <defs>
    <linearGradient id="grad0" x1="0" y1="0" x2="0" y2="1">
      <stop offset="0%"   stop-color="#818cf8" stop-opacity="0.35"/>
      <stop offset="100%" stop-color="#818cf8" stop-opacity="0.02"/>
    </linearGradient>
    <linearGradient id="grad1" x1="0" y1="0" x2="0" y2="1">
      <stop offset="0%"   stop-color="#34d399" stop-opacity="0.35"/>
      <stop offset="100%" stop-color="#34d399" stop-opacity="0.02"/>
    </linearGradient>
  </defs>

  <!-- Y grid + labels -->
  
    <line x1="64" y1="224.0" x2="836" y2="224.0"
      stroke="#e5e7eb" stroke-width="1"/>
    <text x="56" y="224.0" text-anchor="end" dominant-baseline="middle"
      font-size="11" fill="#6b7280">0</text>
    <line x1="64" y1="179.9" x2="836" y2="179.9"
      stroke="#e5e7eb" stroke-width="1"/>
    <text x="56" y="179.9" text-anchor="end" dominant-baseline="middle"
      font-size="11" fill="#6b7280">183</text>
    <line x1="64" y1="136.0" x2="836" y2="136.0"
      stroke="#e5e7eb" stroke-width="1"/>
    <text x="56" y="136.0" text-anchor="end" dominant-baseline="middle"
      font-size="11" fill="#6b7280">365</text>
    <line x1="64" y1="91.9" x2="836" y2="91.9"
      stroke="#e5e7eb" stroke-width="1"/>
    <text x="56" y="91.9" text-anchor="end" dominant-baseline="middle"
      font-size="11" fill="#6b7280">548</text>
    <line x1="64" y1="48.0" x2="836" y2="48.0"
      stroke="#e5e7eb" stroke-width="1"/>
    <text x="56" y="48.0" text-anchor="end" dominant-baseline="middle"
      font-size="11" fill="#6b7280">730</text>

  <!-- Areas -->
  
    <polygon points="64.0,219.7 90.6,222.3 117.2,221.8 143.9,222.8 170.5,223.8 197.1,62.9 223.7,220.1 250.3,219.7 277.0,216.3 303.6,220.9 330.2,223.8 356.8,223.8 383.4,221.3 410.1,79.1 436.7,211.9 463.3,223.5 489.9,221.8 516.6,219.2 543.2,219.9 569.8,87.3 596.4,215.1 623.0,70.7 649.7,216.5 676.3,212.2 702.9,216.5 729.5,190.0 756.1,218.0 782.8,219.7 809.4,223.5 836.0,223.8 836.0,224.0 64.0,224.0" fill="url(#grad0)"/>
    <polygon points="64.0,219.9 90.6,221.3 117.2,221.8 143.9,222.8 170.5,223.8 197.1,48.0 223.7,220.4 250.3,217.2 277.0,212.9 303.6,220.6 330.2,223.8 356.8,224.0 383.4,220.6 410.1,72.1 436.7,214.1 463.3,222.6 489.9,218.7 516.6,223.0 543.2,219.7 569.8,79.1 596.4,215.6 623.0,54.5 649.7,214.1 676.3,209.5 702.9,216.3 729.5,186.9 756.1,219.2 782.8,221.6 809.4,222.8 836.0,223.5 836.0,224.0 64.0,224.0" fill="url(#grad1)"/>

  <!-- Lines -->
  
    <polyline points="64.0,219.7 90.6,222.3 117.2,221.8 143.9,222.8 170.5,223.8 197.1,62.9 223.7,220.1 250.3,219.7 277.0,216.3 303.6,220.9 330.2,223.8 356.8,223.8 383.4,221.3 410.1,79.1 436.7,211.9 463.3,223.5 489.9,221.8 516.6,219.2 543.2,219.9 569.8,87.3 596.4,215.1 623.0,70.7 649.7,216.5 676.3,212.2 702.9,216.5 729.5,190.0 756.1,218.0 782.8,219.7 809.4,223.5 836.0,223.8"
      fill="none" stroke="#6366f1" stroke-width="2.2"
      stroke-linejoin="round" stroke-linecap="round"/>
    <polyline points="64.0,219.9 90.6,221.3 117.2,221.8 143.9,222.8 170.5,223.8 197.1,48.0 223.7,220.4 250.3,217.2 277.0,212.9 303.6,220.6 330.2,223.8 356.8,224.0 383.4,220.6 410.1,72.1 436.7,214.1 463.3,222.6 489.9,218.7 516.6,223.0 543.2,219.7 569.8,79.1 596.4,215.6 623.0,54.5 649.7,214.1 676.3,209.5 702.9,216.3 729.5,186.9 756.1,219.2 782.8,221.6 809.4,222.8 836.0,223.5"
      fill="none" stroke="#10b981" stroke-width="2.2"
      stroke-linejoin="round" stroke-linecap="round"/>

  <!-- X axis labels -->
  
    <text x="64.0" y="242"
      text-anchor="middle" font-size="11" fill="#6b7280">Apr 18</text>
    <text x="197.1" y="242"
      text-anchor="middle" font-size="11" fill="#6b7280">Apr 23</text>
    <text x="330.2" y="242"
      text-anchor="middle" font-size="11" fill="#6b7280">Apr 28</text>
    <text x="463.3" y="242"
      text-anchor="middle" font-size="11" fill="#6b7280">May 3</text>
    <text x="596.4" y="242"
      text-anchor="middle" font-size="11" fill="#6b7280">May 8</text>
    <text x="729.5" y="242"
      text-anchor="middle" font-size="11" fill="#6b7280">May 13</text>
    <text x="836.0" y="242"
      text-anchor="middle" font-size="11" fill="#6b7280">May 17</text>

  <!-- End-point dots -->
  
    <circle cx="836.0" cy="223.8" r="4"
      fill="#6366f1" stroke="#fff" stroke-width="2">
      <title>1 downloads</title>
    </circle>
    <circle cx="836.0" cy="223.5" r="4"
      fill="#10b981" stroke="#fff" stroke-width="2">
      <title>2 downloads</title>
    </circle>

  <!-- Legend (top-left) -->
  
    <rect x="64" y="12" width="12" height="12" rx="3" fill="#6366f1"/>
    <text x="82" y="22" font-size="13" fill="#374151" font-weight="600">
      @doquflow/cli
    </text>
    <text x="82" y="36" font-size="11" fill="#6b7280">
      3,037 last 30 days
    </text>
    <rect x="284" y="12" width="12" height="12" rx="3" fill="#10b981"/>
    <text x="302" y="22" font-size="13" fill="#374151" font-weight="600">
      @doquflow/server
    </text>
    <text x="302" y="36" font-size="11" fill="#6b7280">
      3,275 last 30 days
    </text>

  <!-- Updated timestamp (bottom-right) -->
  <text x="836" y="272" text-anchor="end"
    font-size="10" fill="#9ca3af">Updated 2026-05-18</text>

  <!-- Axes -->
  <line x1="64" y1="48" x2="64" y2="224"
    stroke="#d1d5db" stroke-width="1"/>
  <line x1="64" y1="224" x2="836" y2="224"
    stroke="#d1d5db" stroke-width="1"/>
</svg>