<svg xmlns="http://www.w3.org/2000/svg" width="860" height="280"
  viewBox="0 0 860 280" style="background:#fff;border-radius:12px;font-family:system-ui,sans-serif">
  <defs>
    <linearGradient id="grad0" x1="0" y1="0" x2="0" y2="1">
      <stop offset="0%"   stop-color="#818cf8" stop-opacity="0.35"/>
      <stop offset="100%" stop-color="#818cf8" stop-opacity="0.02"/>
    </linearGradient>
    <linearGradient id="grad1" x1="0" y1="0" x2="0" y2="1">
      <stop offset="0%"   stop-color="#34d399" stop-opacity="0.35"/>
      <stop offset="100%" stop-color="#34d399" stop-opacity="0.02"/>
    </linearGradient>
  </defs>

  <!-- Y grid + labels -->
  
    <line x1="64" y1="224.0" x2="836" y2="224.0"
      stroke="#e5e7eb" stroke-width="1"/>
    <text x="56" y="224.0" text-anchor="end" dominant-baseline="middle"
      font-size="11" fill="#6b7280">0</text>
    <line x1="64" y1="179.9" x2="836" y2="179.9"
      stroke="#e5e7eb" stroke-width="1"/>
    <text x="56" y="179.9" text-anchor="end" dominant-baseline="middle"
      font-size="11" fill="#6b7280">183</text>
    <line x1="64" y1="136.0" x2="836" y2="136.0"
      stroke="#e5e7eb" stroke-width="1"/>
    <text x="56" y="136.0" text-anchor="end" dominant-baseline="middle"
      font-size="11" fill="#6b7280">365</text>
    <line x1="64" y1="91.9" x2="836" y2="91.9"
      stroke="#e5e7eb" stroke-width="1"/>
    <text x="56" y="91.9" text-anchor="end" dominant-baseline="middle"
      font-size="11" fill="#6b7280">548</text>
    <line x1="64" y1="48.0" x2="836" y2="48.0"
      stroke="#e5e7eb" stroke-width="1"/>
    <text x="56" y="48.0" text-anchor="end" dominant-baseline="middle"
      font-size="11" fill="#6b7280">730</text>

  <!-- Areas -->
  
    <polygon points="64.0,169.8 90.6,220.1 117.2,219.7 143.9,222.3 170.5,221.8 197.1,222.8 223.7,223.8 250.3,62.9 277.0,220.1 303.6,219.7 330.2,216.3 356.8,220.9 383.4,223.8 410.1,223.8 436.7,221.3 463.3,79.1 489.9,211.9 516.6,223.5 543.2,221.8 569.8,219.2 596.4,219.9 623.0,87.3 649.7,215.1 676.3,70.7 702.9,216.5 729.5,212.2 756.1,216.5 782.8,190.0 809.4,218.0 836.0,219.7 836.0,224.0 64.0,224.0" fill="url(#grad0)"/>
    <polygon points="64.0,165.9 90.6,219.9 117.2,219.9 143.9,221.3 170.5,221.8 197.1,222.8 223.7,223.8 250.3,48.0 277.0,220.4 303.6,217.2 330.2,212.9 356.8,220.6 383.4,223.8 410.1,224.0 436.7,220.6 463.3,72.1 489.9,214.1 516.6,222.6 543.2,218.7 569.8,223.0 596.4,219.7 623.0,79.1 649.7,215.6 676.3,54.5 702.9,214.1 729.5,209.5 756.1,216.3 782.8,186.9 809.4,219.2 836.0,221.6 836.0,224.0 64.0,224.0" fill="url(#grad1)"/>

  <!-- Lines -->
  
    <polyline points="64.0,169.8 90.6,220.1 117.2,219.7 143.9,222.3 170.5,221.8 197.1,222.8 223.7,223.8 250.3,62.9 277.0,220.1 303.6,219.7 330.2,216.3 356.8,220.9 383.4,223.8 410.1,223.8 436.7,221.3 463.3,79.1 489.9,211.9 516.6,223.5 543.2,221.8 569.8,219.2 596.4,219.9 623.0,87.3 649.7,215.1 676.3,70.7 702.9,216.5 729.5,212.2 756.1,216.5 782.8,190.0 809.4,218.0 836.0,219.7"
      fill="none" stroke="#6366f1" stroke-width="2.2"
      stroke-linejoin="round" stroke-linecap="round"/>
    <polyline points="64.0,165.9 90.6,219.9 117.2,219.9 143.9,221.3 170.5,221.8 197.1,222.8 223.7,223.8 250.3,48.0 277.0,220.4 303.6,217.2 330.2,212.9 356.8,220.6 383.4,223.8 410.1,224.0 436.7,220.6 463.3,72.1 489.9,214.1 516.6,222.6 543.2,218.7 569.8,223.0 596.4,219.7 623.0,79.1 649.7,215.6 676.3,54.5 702.9,214.1 729.5,209.5 756.1,216.3 782.8,186.9 809.4,219.2 836.0,221.6"
      fill="none" stroke="#10b981" stroke-width="2.2"
      stroke-linejoin="round" stroke-linecap="round"/>

  <!-- X axis labels -->
  
    <text x="64.0" y="242"
      text-anchor="middle" font-size="11" fill="#6b7280">Apr 16</text>
    <text x="197.1" y="242"
      text-anchor="middle" font-size="11" fill="#6b7280">Apr 21</text>
    <text x="330.2" y="242"
      text-anchor="middle" font-size="11" fill="#6b7280">Apr 26</text>
    <text x="463.3" y="242"
      text-anchor="middle" font-size="11" fill="#6b7280">May 1</text>
    <text x="596.4" y="242"
      text-anchor="middle" font-size="11" fill="#6b7280">May 6</text>
    <text x="729.5" y="242"
      text-anchor="middle" font-size="11" fill="#6b7280">May 11</text>
    <text x="836.0" y="242"
      text-anchor="middle" font-size="11" fill="#6b7280">May 15</text>

  <!-- End-point dots -->
  
    <circle cx="836.0" cy="219.7" r="4"
      fill="#6366f1" stroke="#fff" stroke-width="2">
      <title>18 downloads</title>
    </circle>
    <circle cx="836.0" cy="221.6" r="4"
      fill="#10b981" stroke="#fff" stroke-width="2">
      <title>10 downloads</title>
    </circle>

  <!-- Legend (top-left) -->
  
    <rect x="64" y="12" width="12" height="12" rx="3" fill="#6366f1"/>
    <text x="82" y="22" font-size="13" fill="#374151" font-weight="600">
      @doquflow/cli
    </text>
    <text x="82" y="36" font-size="11" fill="#6b7280">
      3,275 last 30 days
    </text>
    <rect x="284" y="12" width="12" height="12" rx="3" fill="#10b981"/>
    <text x="302" y="22" font-size="13" fill="#374151" font-weight="600">
      @doquflow/server
    </text>
    <text x="302" y="36" font-size="11" fill="#6b7280">
      3,526 last 30 days
    </text>

  <!-- Updated timestamp (bottom-right) -->
  <text x="836" y="272" text-anchor="end"
    font-size="10" fill="#9ca3af">Updated 2026-05-16</text>

  <!-- Axes -->
  <line x1="64" y1="48" x2="64" y2="224"
    stroke="#d1d5db" stroke-width="1"/>
  <line x1="64" y1="224" x2="836" y2="224"
    stroke="#d1d5db" stroke-width="1"/>
</svg>