<svg xmlns="http://www.w3.org/2000/svg" width="860" height="280"
  viewBox="0 0 860 280" style="background:#fff;border-radius:12px;font-family:system-ui,sans-serif">
  <defs>
    <linearGradient id="grad0" x1="0" y1="0" x2="0" y2="1">
      <stop offset="0%"   stop-color="#818cf8" stop-opacity="0.35"/>
      <stop offset="100%" stop-color="#818cf8" stop-opacity="0.02"/>
    </linearGradient>
    <linearGradient id="grad1" x1="0" y1="0" x2="0" y2="1">
      <stop offset="0%"   stop-color="#34d399" stop-opacity="0.35"/>
      <stop offset="100%" stop-color="#34d399" stop-opacity="0.02"/>
    </linearGradient>
  </defs>

  <!-- Y grid + labels -->
  
    <line x1="64" y1="224.0" x2="836" y2="224.0"
      stroke="#e5e7eb" stroke-width="1"/>
    <text x="56" y="224.0" text-anchor="end" dominant-baseline="middle"
      font-size="11" fill="#6b7280">0</text>
    <line x1="64" y1="179.9" x2="836" y2="179.9"
      stroke="#e5e7eb" stroke-width="1"/>
    <text x="56" y="179.9" text-anchor="end" dominant-baseline="middle"
      font-size="11" fill="#6b7280">183</text>
    <line x1="64" y1="136.0" x2="836" y2="136.0"
      stroke="#e5e7eb" stroke-width="1"/>
    <text x="56" y="136.0" text-anchor="end" dominant-baseline="middle"
      font-size="11" fill="#6b7280">365</text>
    <line x1="64" y1="91.9" x2="836" y2="91.9"
      stroke="#e5e7eb" stroke-width="1"/>
    <text x="56" y="91.9" text-anchor="end" dominant-baseline="middle"
      font-size="11" fill="#6b7280">548</text>
    <line x1="64" y1="48.0" x2="836" y2="48.0"
      stroke="#e5e7eb" stroke-width="1"/>
    <text x="56" y="48.0" text-anchor="end" dominant-baseline="middle"
      font-size="11" fill="#6b7280">730</text>

  <!-- Areas -->
  
    <polygon points="64.0,220.1 90.6,219.7 117.2,222.3 143.9,221.8 170.5,222.8 197.1,223.8 223.7,62.9 250.3,220.1 277.0,219.7 303.6,216.3 330.2,220.9 356.8,223.8 383.4,223.8 410.1,221.3 436.7,79.1 463.3,211.9 489.9,223.5 516.6,221.8 543.2,219.2 569.8,219.9 596.4,87.3 623.0,215.1 649.7,70.7 676.3,216.5 702.9,212.2 729.5,216.5 756.1,190.0 782.8,218.0 809.4,219.7 836.0,223.5 836.0,224.0 64.0,224.0" fill="url(#grad0)"/>
    <polygon points="64.0,219.9 90.6,219.9 117.2,221.3 143.9,221.8 170.5,222.8 197.1,223.8 223.7,48.0 250.3,220.4 277.0,217.2 303.6,212.9 330.2,220.6 356.8,223.8 383.4,224.0 410.1,220.6 436.7,72.1 463.3,214.1 489.9,222.6 516.6,218.7 543.2,223.0 569.8,219.7 596.4,79.1 623.0,215.6 649.7,54.5 676.3,214.1 702.9,209.5 729.5,216.3 756.1,186.9 782.8,219.2 809.4,221.6 836.0,222.8 836.0,224.0 64.0,224.0" fill="url(#grad1)"/>

  <!-- Lines -->
  
    <polyline points="64.0,220.1 90.6,219.7 117.2,222.3 143.9,221.8 170.5,222.8 197.1,223.8 223.7,62.9 250.3,220.1 277.0,219.7 303.6,216.3 330.2,220.9 356.8,223.8 383.4,223.8 410.1,221.3 436.7,79.1 463.3,211.9 489.9,223.5 516.6,221.8 543.2,219.2 569.8,219.9 596.4,87.3 623.0,215.1 649.7,70.7 676.3,216.5 702.9,212.2 729.5,216.5 756.1,190.0 782.8,218.0 809.4,219.7 836.0,223.5"
      fill="none" stroke="#6366f1" stroke-width="2.2"
      stroke-linejoin="round" stroke-linecap="round"/>
    <polyline points="64.0,219.9 90.6,219.9 117.2,221.3 143.9,221.8 170.5,222.8 197.1,223.8 223.7,48.0 250.3,220.4 277.0,217.2 303.6,212.9 330.2,220.6 356.8,223.8 383.4,224.0 410.1,220.6 436.7,72.1 463.3,214.1 489.9,222.6 516.6,218.7 543.2,223.0 569.8,219.7 596.4,79.1 623.0,215.6 649.7,54.5 676.3,214.1 702.9,209.5 729.5,216.3 756.1,186.9 782.8,219.2 809.4,221.6 836.0,222.8"
      fill="none" stroke="#10b981" stroke-width="2.2"
      stroke-linejoin="round" stroke-linecap="round"/>

  <!-- X axis labels -->
  
    <text x="64.0" y="242"
      text-anchor="middle" font-size="11" fill="#6b7280">Apr 17</text>
    <text x="197.1" y="242"
      text-anchor="middle" font-size="11" fill="#6b7280">Apr 22</text>
    <text x="330.2" y="242"
      text-anchor="middle" font-size="11" fill="#6b7280">Apr 27</text>
    <text x="463.3" y="242"
      text-anchor="middle" font-size="11" fill="#6b7280">May 2</text>
    <text x="596.4" y="242"
      text-anchor="middle" font-size="11" fill="#6b7280">May 7</text>
    <text x="729.5" y="242"
      text-anchor="middle" font-size="11" fill="#6b7280">May 12</text>
    <text x="836.0" y="242"
      text-anchor="middle" font-size="11" fill="#6b7280">May 16</text>

  <!-- End-point dots -->
  
    <circle cx="836.0" cy="223.5" r="4"
      fill="#6366f1" stroke="#fff" stroke-width="2">
      <title>2 downloads</title>
    </circle>
    <circle cx="836.0" cy="222.8" r="4"
      fill="#10b981" stroke="#fff" stroke-width="2">
      <title>5 downloads</title>
    </circle>

  <!-- Legend (top-left) -->
  
    <rect x="64" y="12" width="12" height="12" rx="3" fill="#6366f1"/>
    <text x="82" y="22" font-size="13" fill="#374151" font-weight="600">
      @doquflow/cli
    </text>
    <text x="82" y="36" font-size="11" fill="#6b7280">
      3,052 last 30 days
    </text>
    <rect x="284" y="12" width="12" height="12" rx="3" fill="#10b981"/>
    <text x="302" y="22" font-size="13" fill="#374151" font-weight="600">
      @doquflow/server
    </text>
    <text x="302" y="36" font-size="11" fill="#6b7280">
      3,290 last 30 days
    </text>

  <!-- Updated timestamp (bottom-right) -->
  <text x="836" y="272" text-anchor="end"
    font-size="10" fill="#9ca3af">Updated 2026-05-18</text>

  <!-- Axes -->
  <line x1="64" y1="48" x2="64" y2="224"
    stroke="#d1d5db" stroke-width="1"/>
  <line x1="64" y1="224" x2="836" y2="224"
    stroke="#d1d5db" stroke-width="1"/>
</svg>